<svg width="16" height="17" viewBox="0 0 16 17" fill="none" xmlns="http://www.w3.org/2000/svg">
<path d="M9.68705 4.70113C9.49179 4.50587 9.1752 4.50587 8.97994 4.70113C8.78468 4.8964 8.78468 5.21298 8.97994 5.40824L11.4597 7.88802H3.3335C3.05735 7.88802 2.8335 8.11188 2.8335 8.38802C2.8335 8.66416 3.05735 8.88802 3.3335 8.88802H11.4597L8.97994 11.3678C8.78468 11.5631 8.78468 11.8796 8.97994 12.0749C9.1752 12.2702 9.49179 12.2702 9.68705 12.0749L13.0202 8.7418C13.0201 8.74187 13.0202 8.74172 13.0202 8.7418C13.0681 8.69386 13.1045 8.63838 13.1289 8.57941C13.1532 8.52089 13.1666 8.45677 13.1668 8.38952C13.1668 8.38902 13.1668 8.38852 13.1668 8.38802C13.1668 8.38752 13.1668 8.38702 13.1668 8.38652C13.1666 8.31912 13.1531 8.25486 13.1287 8.19623C13.1043 8.13741 13.0682 8.0823 13.0204 8.03447L13.0193 8.03341L9.68705 4.70113Z" fill="#3E68F6"/>
</svg>
