<svg width="24" height="25" viewBox="0 0 24 25" fill="none" xmlns="http://www.w3.org/2000/svg">
<g id="linkedin-02">
<path id="Union" fill-rule="evenodd" clip-rule="evenodd" d="M7 5.25C7 6.49264 5.99264 7.5 4.75 7.5C3.50736 7.5 2.5 6.49264 2.5 5.25C2.5 4.00736 3.50736 3 4.75 3C5.99264 3 7 4.00736 7 5.25ZM4.5 9.5C3.55719 9.5 3.08579 9.5 2.79289 9.79289C2.5 10.0858 2.5 10.5572 2.5 11.5L2.5 20C2.5 20.9428 2.5 21.4142 2.79289 21.7071C3.08579 22 3.55719 22 4.5 22H5C5.94281 22 6.41421 22 6.70711 21.7071C7 21.4142 7 20.9428 7 20L7 11.5C7 10.5572 7 10.0858 6.70711 9.79289C6.41421 9.5 5.94281 9.5 5 9.5H4.5ZM11 9.5L11.826 9.5C12.4561 9.5 12.7711 9.5 13.005 9.63687C13.1531 9.72353 13.2765 9.84686 13.3632 9.995C13.5 10.2289 13.5 10.5439 13.5001 11.174C14.2767 10.1531 15.4649 9.50024 16.7968 9.50024C19.1364 9.50024 21.5001 11.515 21.5001 14.0002L21.4987 19.5006C21.4985 20.4432 21.4984 20.9145 21.2055 21.2073C20.9126 21.5001 20.4413 21.5001 19.4987 21.5001H19.4987H19C18.0572 21.5001 17.5857 21.5001 17.2929 21.2072C17 20.9143 17 20.4429 17 19.5001V15.0001C17 14.1717 16.3677 13.5001 15.5879 13.5001C14.0281 13.5001 13.5001 14.8433 13.5001 16.5001L13.5 20C13.5 20.9428 13.5 21.4142 13.2071 21.7071C12.9142 22 12.4428 22 11.5 22H11C10.0572 22 9.58579 22 9.29289 21.7071C9 21.4142 9 20.9428 9 20L9 11.5C9 10.5572 9 10.0858 9.29289 9.79289C9.58579 9.5 10.0572 9.5 11 9.5Z" fill="#3E68F6"/>
</g>
</svg>
