<svg width="25" height="24" viewBox="0 0 25 24" fill="none" xmlns="http://www.w3.org/2000/svg">
<g id="Menu">
<g id="Union">
<path d="M22.2539 5.99609C22.2539 5.58188 21.9181 5.24609 21.5039 5.24609H3.49641C3.08219 5.24609 2.74641 5.58188 2.74641 5.99609C2.74641 6.41031 3.08219 6.74609 3.49641 6.74609H21.5039C21.9181 6.74609 22.2539 6.41031 22.2539 5.99609Z" fill="#01071C"/>
<path d="M22.2539 11.9986C22.2539 11.5844 21.9181 11.2486 21.5039 11.2486H7.49807C7.08386 11.2486 6.74807 11.5844 6.74807 11.9986C6.74807 12.4128 7.08386 12.7486 7.49807 12.7486H21.5039C21.9181 12.7486 22.2539 12.4128 22.2539 11.9986Z" fill="#01071C"/>
<path d="M21.5039 17.2511C21.9181 17.2511 22.2539 17.5869 22.2539 18.0011C22.2539 18.4153 21.9181 18.7511 21.5039 18.7511H11.4997C11.0855 18.7511 10.7497 18.4153 10.7497 18.0011C10.7497 17.5869 11.0855 17.2511 11.4997 17.2511H21.5039Z" fill="#01071C"/>
</g>
</g>
</svg>
