<svg width="20" height="21" viewBox="0 0 20 21" fill="none" xmlns="http://www.w3.org/2000/svg">
<path fill-rule="evenodd" clip-rule="evenodd" d="M4.47105 3.76011C4.82268 3.40848 5.29959 3.21094 5.79687 3.21094C6.29416 3.21094 6.77107 3.40848 7.1227 3.76012L8.72047 5.3579C9.61541 6.25285 9.61541 7.70384 8.72047 8.59879L7.76159 9.55769C8.39395 10.9744 9.52788 12.1083 10.9446 12.7407L11.9035 11.7818C12.3332 11.352 12.9161 11.1106 13.5239 11.1106C14.1317 11.1106 14.7146 11.352 15.1444 11.7818L16.7422 13.3796C17.4744 14.1118 17.4744 15.299 16.7422 16.0312L16.0267 16.7467C15.3567 17.4167 14.4482 17.7934 13.5007 17.7943C10.6376 17.7967 7.89094 16.6604 5.86638 14.6359C3.84181 12.6113 2.70553 9.86468 2.70801 7.00152C2.70883 6.05401 3.0856 5.14555 3.75559 4.47556L4.47105 3.76011ZM5.79687 4.46094C5.63111 4.46094 5.47214 4.52679 5.35493 4.644L4.63947 5.35945C4.20363 5.79528 3.95855 6.38624 3.95801 7.0026C3.95582 9.53387 4.96039 11.9621 6.75026 13.752C8.54014 15.5419 10.9684 16.5464 13.4996 16.5443C14.116 16.5437 14.707 16.2986 15.1428 15.8628L15.8583 15.1473C16.1024 14.9033 16.1024 14.5075 15.8583 14.2634L14.2605 12.6657C14.0651 12.4703 13.8002 12.3606 13.5239 12.3606C13.2477 12.3606 12.9827 12.4703 12.7874 12.6657L11.5348 13.9182C11.3618 14.0913 11.1037 14.1474 10.8744 14.0619C8.82327 13.2969 7.20533 11.679 6.44037 9.62783C6.35487 9.39857 6.41101 9.14051 6.58402 8.9675L7.83658 7.71491C8.24337 7.30812 8.24337 6.64858 7.83658 6.24178L6.23882 4.644C6.12161 4.52679 5.96264 4.46094 5.79687 4.46094Z" fill="white"/>
</svg>
